<?xml version="1.0" encoding="UTF-8" standalone="no"?><!-- Generator: Gravit.io --><svg xmlns="http://www.w3.org/2000/svg" xmlns:xlink="http://www.w3.org/1999/xlink" style="isolation:isolate" viewBox="0 0 360 100" width="360pt" height="100pt"><defs><clipPath id="_clipPath_7rhhISCfdlrOB0IkhLjG9TOC2BA8CIEo"><rect width="360" height="100"/></clipPath></defs><g clip-path="url(#_clipPath_7rhhISCfdlrOB0IkhLjG9TOC2BA8CIEo)"><path d=" M 77.191 22.282 L 59.393 4.484 C 58.927 4.095 58.227 3.785 57.528 3.785 C 57.528 3.785 57.528 3.785 57.528 3.785 L 10.897 3.785 C 7.632 3.785 4.99 6.427 4.99 9.691 L 4.99 88.032 C 4.99 91.296 7.632 93.938 10.897 93.938 L 71.983 93.938 C 75.248 93.938 77.89 91.296 77.89 88.032 L 77.89 23.914 C 77.89 23.292 77.579 22.67 77.191 22.282 Z  M 60.092 11.712 L 69.963 21.582 L 61.336 21.582 C 60.636 21.582 60.092 21.038 60.092 20.339 L 60.092 11.712 Z  M 73.149 88.032 C 73.149 88.731 72.605 89.275 71.906 89.275 L 10.897 89.275 C 10.197 89.275 9.653 88.731 9.653 88.032 L 9.653 9.691 C 9.653 8.992 10.197 8.448 10.897 8.448 L 55.352 8.448 L 55.352 20.339 C 55.352 23.603 57.994 26.245 61.258 26.245 L 73.149 26.245 L 73.149 88.032 Z " fill="rgb(34,119,255)"/><path d=" M 38.93 55.67 C 37.377 50.374 40.417 44.814 45.713 43.261 C 51.009 41.709 56.569 44.748 58.122 50.045 C 59.674 55.341 56.635 60.901 51.339 62.454 C 46.042 64.006 40.482 60.967 38.93 55.67 Z " fill="rgb(255,255,255)" vector-effect="non-scaling-stroke" stroke-width="4" stroke="rgb(34,119,255)" stroke-linejoin="miter" stroke-linecap="square" stroke-miterlimit="3"/><path d=" M 25.93 60.672 C 24.377 55.376 27.417 49.816 32.713 48.263 C 38.009 46.711 43.569 49.75 45.122 55.046 C 46.674 60.343 43.635 65.903 38.339 67.456 C 33.042 69.008 27.482 65.969 25.93 60.672 Z " fill="rgb(255,255,255)" vector-effect="non-scaling-stroke" stroke-width="4" stroke="rgb(34,119,255)" stroke-linejoin="miter" stroke-linecap="square" stroke-miterlimit="3"/><path d=" M 25.93 45.672 C 24.377 40.376 27.417 34.816 32.713 33.263 C 38.009 31.711 43.569 34.75 45.122 40.046 C 46.674 45.343 43.635 50.903 38.339 52.456 C 33.042 54.008 27.482 50.969 25.93 45.672 Z " fill="rgb(255,255,255)" vector-effect="non-scaling-stroke" stroke-width="4" stroke="rgb(34,119,255)" stroke-linejoin="miter" stroke-linecap="square" stroke-miterlimit="3"/><linearGradient id="_lgradient_0" x1="0" y1="0.5" x2="1" y2="0.5" gradientTransform="matrix(262.656,0,0,74.16,92.354,22.055)" gradientUnits="userSpaceOnUse"><stop offset="0%" stop-opacity="1" style="stop-color:rgb(34,119,255)"/><stop offset="100%" stop-opacity="1" style="stop-color:rgb(69,218,255)"/></linearGradient><path d=" M 128.354 22.703 L 128.354 22.703 Q 130.01 22.703 131.018 23.711 L 131.018 23.711 L 131.018 23.711 Q 132.026 24.719 132.026 26.375 L 132.026 26.375 L 132.026 59.207 L 132.026 59.207 Q 132.026 64.823 129.398 69.395 L 129.398 69.395 L 129.398 69.395 Q 126.77 73.967 122.27 76.595 L 122.27 76.595 L 122.27 76.595 Q 117.77 79.223 112.226 79.223 L 112.226 79.223 L 112.226 79.223 Q 106.682 79.223 102.11 76.595 L 102.11 76.595 L 102.11 76.595 Q 97.538 73.967 94.946 69.395 L 94.946 69.395 L 94.946 69.395 Q 92.354 64.823 92.354 59.207 L 92.354 59.207 L 92.354 59.207 Q 92.354 53.591 94.766 49.019 L 94.766 49.019 L 94.766 49.019 Q 97.178 44.447 101.39 41.855 L 101.39 41.855 L 101.39 41.855 Q 105.602 39.263 110.786 39.263 L 110.786 39.263 L 110.786 39.263 Q 114.962 39.263 118.562 40.991 L 118.562 40.991 L 118.562 40.991 Q 122.162 42.719 124.682 45.815 L 124.682 45.815 L 124.682 26.375 L 124.682 26.375 Q 124.682 24.719 125.726 23.711 L 125.726 23.711 L 125.726 23.711 Q 126.77 22.703 128.354 22.703 L 128.354 22.703 Z  M 112.226 72.743 L 112.226 72.743 Q 115.826 72.743 118.742 70.979 L 118.742 70.979 L 118.742 70.979 Q 121.658 69.215 123.314 66.119 L 123.314 66.119 L 123.314 66.119 Q 124.97 63.023 124.97 59.207 L 124.97 59.207 L 124.97 59.207 Q 124.97 55.391 123.314 52.331 L 123.314 52.331 L 123.314 52.331 Q 121.658 49.271 118.742 47.507 L 118.742 47.507 L 118.742 47.507 Q 115.826 45.743 112.226 45.743 L 112.226 45.743 L 112.226 45.743 Q 108.626 45.743 105.71 47.507 L 105.71 47.507 L 105.71 47.507 Q 102.794 49.271 101.102 52.331 L 101.102 52.331 L 101.102 52.331 Q 99.41 55.391 99.41 59.207 L 99.41 59.207 L 99.41 59.207 Q 99.41 63.023 101.102 66.119 L 101.102 66.119 L 101.102 66.119 Q 102.794 69.215 105.71 70.979 L 105.71 70.979 L 105.71 70.979 Q 108.626 72.743 112.226 72.743 L 112.226 72.743 Z  M 162.842 39.263 L 162.842 39.263 Q 168.53 39.263 173.03 41.819 L 173.03 41.819 L 173.03 41.819 Q 177.53 44.375 180.086 48.911 L 180.086 48.911 L 180.086 48.911 Q 182.642 53.447 182.642 59.279 L 182.642 59.279 L 182.642 59.279 Q 182.642 65.039 180.122 69.575 L 180.122 69.575 L 180.122 69.575 Q 177.602 74.111 173.102 76.667 L 173.102 76.667 L 173.102 76.667 Q 168.602 79.223 162.842 79.223 L 162.842 79.223 L 162.842 79.223 Q 157.082 79.223 152.546 76.667 L 152.546 76.667 L 152.546 76.667 Q 148.01 74.111 145.49 69.575 L 145.49 69.575 L 145.49 69.575 Q 142.97 65.039 142.97 59.279 L 142.97 59.279 L 142.97 59.279 Q 142.97 53.447 145.49 48.911 L 145.49 48.911 L 145.49 48.911 Q 148.01 44.375 152.546 41.819 L 152.546 41.819 L 152.546 41.819 Q 157.082 39.263 162.842 39.263 L 162.842 39.263 Z  M 162.842 45.743 L 162.842 45.743 Q 159.17 45.743 156.254 47.471 L 156.254 47.471 L 156.254 47.471 Q 153.338 49.199 151.682 52.295 L 151.682 52.295 L 151.682 52.295 Q 150.026 55.391 150.026 59.279 L 150.026 59.279 L 150.026 59.279 Q 150.026 63.167 151.682 66.227 L 151.682 66.227 L 151.682 66.227 Q 153.338 69.287 156.254 71.015 L 156.254 71.015 L 156.254 71.015 Q 159.17 72.743 162.842 72.743 L 162.842 72.743 L 162.842 72.743 Q 166.514 72.743 169.43 71.015 L 169.43 71.015 L 169.43 71.015 Q 172.346 69.287 173.966 66.227 L 173.966 66.227 L 173.966 66.227 Q 175.586 63.167 175.586 59.279 L 175.586 59.279 L 175.586 59.279 Q 175.586 55.391 173.966 52.295 L 173.966 52.295 L 173.966 52.295 Q 172.346 49.199 169.43 47.471 L 169.43 47.471 L 169.43 47.471 Q 166.514 45.743 162.842 45.743 L 162.842 45.743 Z  M 211.082 39.263 L 211.082 39.263 Q 219.578 39.263 225.194 45.743 L 225.194 45.743 L 225.194 45.743 Q 225.914 46.535 225.914 47.615 L 225.914 47.615 L 225.914 47.615 Q 225.914 49.199 224.33 50.279 L 224.33 50.279 L 224.33 50.279 Q 223.61 50.783 222.674 50.783 L 222.674 50.783 L 222.674 50.783 Q 221.018 50.783 219.866 49.487 L 219.866 49.487 L 219.866 49.487 Q 218.066 47.543 215.942 46.643 L 215.942 46.643 L 215.942 46.643 Q 213.818 45.743 211.082 45.743 L 211.082 45.743 L 211.082 45.743 Q 205.538 45.743 202.082 49.451 L 202.082 49.451 L 202.082 49.451 Q 198.626 53.159 198.626 59.279 L 198.626 59.279 L 198.626 59.279 Q 198.626 63.167 200.246 66.227 L 200.246 66.227 L 200.246 66.227 Q 201.866 69.287 204.782 71.015 L 204.782 71.015 L 204.782 71.015 Q 207.698 72.743 211.442 72.743 L 211.442 72.743 L 211.442 72.743 Q 216.338 72.743 219.362 70.223 L 219.362 70.223 L 219.362 70.223 Q 220.73 69.215 222.026 69.215 L 222.026 69.215 L 222.026 69.215 Q 223.034 69.215 223.898 69.863 L 223.898 69.863 L 223.898 69.863 Q 225.266 71.015 225.266 72.455 L 225.266 72.455 L 225.266 72.455 Q 225.266 73.535 224.402 74.399 L 224.402 74.399 L 224.402 74.399 Q 219.218 79.223 211.442 79.223 L 211.442 79.223 L 211.442 79.223 Q 205.754 79.223 201.218 76.631 L 201.218 76.631 L 201.218 76.631 Q 196.682 74.039 194.126 69.467 L 194.126 69.467 L 194.126 69.467 Q 191.57 64.895 191.57 59.279 L 191.57 59.279 L 191.57 59.279 Q 191.57 53.519 194.054 48.947 L 194.054 48.947 L 194.054 48.947 Q 196.538 44.375 201.002 41.819 L 201.002 41.819 L 201.002 41.819 Q 205.466 39.263 211.082 39.263 L 211.082 39.263 Z  M 256.442 22.055 L 256.442 22.055 Q 262.634 22.055 266.882 24.575 L 266.882 24.575 L 266.882 24.575 Q 271.13 27.095 274.082 31.775 L 274.082 31.775 L 274.082 31.775 Q 274.946 33.143 274.946 34.367 L 274.946 34.367 L 274.946 34.367 Q 274.946 35.951 273.506 36.959 L 273.506 36.959 L 273.506 36.959 Q 272.714 37.463 271.634 37.463 L 271.634 37.463 L 271.634 37.463 Q 270.554 37.463 269.618 36.923 L 269.618 36.923 L 269.618 36.923 Q 268.682 36.383 268.178 35.447 L 268.178 35.447 L 268.178 35.447 Q 266.234 32.207 263.318 30.515 L 263.318 30.515 L 263.318 30.515 Q 260.402 28.823 255.938 28.823 L 255.938 28.823 L 255.938 28.823 Q 250.466 28.823 247.082 30.947 L 247.082 30.947 L 247.082 30.947 Q 243.698 33.071 243.698 37.103 L 243.698 37.103 L 243.698 37.103 Q 243.698 40.847 246.722 43.367 L 246.722 43.367 L 246.722 43.367 Q 249.746 45.887 257.522 46.679 L 257.522 46.679 L 257.522 46.679 Q 266.162 47.543 270.914 51.899 L 270.914 51.899 L 270.914 51.899 Q 275.666 56.255 275.666 63.383 L 275.666 63.383 L 275.666 63.383 Q 275.666 68.567 272.858 72.275 L 272.858 72.275 L 272.858 72.275 Q 270.05 75.983 265.406 77.819 L 265.406 77.819 L 265.406 77.819 Q 260.762 79.655 255.434 79.655 L 255.434 79.655 L 255.434 79.655 Q 248.45 79.655 242.726 76.487 L 242.726 76.487 L 242.726 76.487 Q 237.002 73.319 234.842 68.207 L 234.842 68.207 L 234.842 68.207 Q 234.482 67.343 234.482 66.767 L 234.482 66.767 L 234.482 66.767 Q 234.482 65.687 235.274 64.859 L 235.274 64.859 L 235.274 64.859 Q 236.066 64.031 237.434 63.743 L 237.434 63.743 L 237.434 63.743 Q 237.65 63.671 238.154 63.671 L 238.154 63.671 L 238.154 63.671 Q 239.306 63.671 240.35 64.355 L 240.35 64.355 L 240.35 64.355 Q 241.394 65.039 241.898 66.191 L 241.898 66.191 L 241.898 66.191 Q 243.194 68.999 247.01 70.943 L 247.01 70.943 L 247.01 70.943 Q 250.826 72.887 255.434 72.887 L 255.434 72.887 L 255.434 72.887 Q 260.834 72.887 264.578 70.403 L 264.578 70.403 L 264.578 70.403 Q 268.322 67.919 268.322 63.599 L 268.322 63.599 L 268.322 63.599 Q 268.322 59.495 265.154 56.579 L 265.154 56.579 L 265.154 56.579 Q 261.986 53.663 255.506 53.015 L 255.506 53.015 L 255.506 53.015 Q 246.578 52.151 241.466 47.795 L 241.466 47.795 L 241.466 47.795 Q 236.354 43.439 236.354 36.887 L 236.354 36.887 L 236.354 36.887 Q 236.354 32.279 238.982 28.931 L 238.982 28.931 L 238.982 28.931 Q 241.61 25.583 246.182 23.819 L 246.182 23.819 L 246.182 23.819 Q 250.754 22.055 256.442 22.055 L 256.442 22.055 Z  M 316.49 39.911 L 316.49 39.911 Q 318.722 40.775 318.722 42.719 L 318.722 42.719 L 318.722 42.719 Q 318.722 43.439 318.29 44.447 L 318.29 44.447 L 296.258 93.983 L 296.258 93.983 Q 295.394 96.215 293.45 96.215 L 293.45 96.215 L 293.45 96.215 Q 292.73 96.215 291.722 95.783 L 291.722 95.783 L 291.722 95.783 Q 289.562 94.847 289.562 92.975 L 289.562 92.975 L 289.562 92.975 Q 289.562 92.111 289.994 91.247 L 289.994 91.247 L 297.194 75.047 L 280.994 44.303 L 280.994 44.303 Q 280.634 43.655 280.634 42.791 L 280.634 42.791 L 280.634 42.791 Q 280.634 41.855 281.21 41.063 L 281.21 41.063 L 281.21 41.063 Q 281.786 40.271 282.722 39.839 L 282.722 39.839 L 282.722 39.839 Q 283.37 39.551 284.162 39.551 L 284.162 39.551 L 284.162 39.551 Q 286.178 39.551 287.186 41.567 L 287.186 41.567 L 300.362 67.775 L 311.954 41.639 L 311.954 41.639 Q 312.89 39.551 314.762 39.551 L 314.762 39.551 L 314.762 39.551 Q 315.698 39.551 316.49 39.911 L 316.49 39.911 Z  M 339.026 39.263 L 339.026 39.263 Q 343.706 39.263 347.414 40.775 L 347.414 40.775 L 347.414 40.775 Q 351.122 42.287 353.282 44.951 L 353.282 44.951 L 353.282 44.951 Q 354.218 46.103 354.218 47.255 L 354.218 47.255 L 354.218 47.255 Q 354.218 48.479 352.994 49.487 L 352.994 49.487 L 352.994 49.487 Q 352.202 50.063 350.978 50.063 L 350.978 50.063 L 350.978 50.063 Q 349.106 50.063 347.594 48.695 L 347.594 48.695 L 347.594 48.695 Q 345.794 47.039 343.778 46.355 L 343.778 46.355 L 343.778 46.355 Q 341.762 45.671 338.882 45.671 L 338.882 45.671 L 338.882 45.671 Q 335.57 45.671 333.446 46.787 L 333.446 46.787 L 333.446 46.787 Q 331.322 47.903 331.322 49.919 L 331.322 49.919 L 331.322 49.919 Q 331.322 51.359 332.042 52.331 L 332.042 52.331 L 332.042 52.331 Q 332.762 53.303 334.778 54.131 L 334.778 54.131 L 334.778 54.131 Q 336.794 54.959 340.61 55.751 L 340.61 55.751 L 340.61 55.751 Q 348.458 57.335 351.734 60.143 L 351.734 60.143 L 351.734 60.143 Q 355.01 62.951 355.01 67.415 L 355.01 67.415 L 355.01 67.415 Q 355.01 70.727 353.21 73.427 L 353.21 73.427 L 353.21 73.427 Q 351.41 76.127 347.918 77.675 L 347.918 77.675 L 347.918 77.675 Q 344.426 79.223 339.53 79.223 L 339.53 79.223 L 339.53 79.223 Q 334.634 79.223 330.314 77.711 L 330.314 77.711 L 330.314 77.711 Q 325.994 76.199 323.546 73.751 L 323.546 73.751 L 323.546 73.751 Q 322.61 72.815 322.61 71.519 L 322.61 71.519 L 322.61 71.519 Q 322.61 69.791 324.05 68.711 L 324.05 68.711 L 324.05 68.711 Q 325.418 67.703 326.57 67.703 L 326.57 67.703 L 326.57 67.703 Q 328.01 67.703 329.306 68.999 L 329.306 68.999 L 329.306 68.999 Q 330.674 70.511 333.41 71.627 L 333.41 71.627 L 333.41 71.627 Q 336.146 72.743 339.242 72.743 L 339.242 72.743 L 339.242 72.743 Q 343.346 72.743 345.614 71.375 L 345.614 71.375 L 345.614 71.375 Q 347.882 70.007 347.882 67.703 L 347.882 67.703 L 347.882 67.703 Q 347.882 65.471 345.65 63.995 L 345.65 63.995 L 345.65 63.995 Q 343.418 62.519 338.09 61.511 L 338.09 61.511 L 338.09 61.511 Q 324.266 58.847 324.266 50.135 L 324.266 50.135 L 324.266 50.135 Q 324.266 46.607 326.354 44.159 L 326.354 44.159 L 326.354 44.159 Q 328.442 41.711 331.826 40.487 L 331.826 40.487 L 331.826 40.487 Q 335.21 39.263 339.026 39.263 L 339.026 39.263 Z " fill="url(#_lgradient_0)"/></g></svg>